<svg width="16" height="16" viewBox="0 0 16 16" fill="none" xmlns="http://www.w3.org/2000/svg">
<g clip-path="url(#clip0_122_2502)">
<path d="M3.33317 1.33325H12.6665C12.8433 1.33325 13.0129 1.40349 13.1379 1.52851C13.2629 1.65354 13.3332 1.82311 13.3332 1.99992V14.7619C13.3332 14.8215 13.3173 14.8801 13.2871 14.9314C13.2569 14.9828 13.2134 15.0251 13.1613 15.054C13.1091 15.0828 13.0502 15.0972 12.9906 15.0955C12.931 15.0939 12.873 15.0763 12.8225 15.0446L7.99984 12.0199L3.17717 15.0439C3.12675 15.0756 3.06876 15.0932 3.00924 15.0949C2.94971 15.0966 2.89083 15.0823 2.8387 15.0535C2.78657 15.0247 2.74311 14.9825 2.71283 14.9312C2.68254 14.8799 2.66655 14.8215 2.6665 14.7619V1.99992C2.6665 1.82311 2.73674 1.65354 2.86177 1.52851C2.98679 1.40349 3.15636 1.33325 3.33317 1.33325ZM11.9998 2.66659H3.99984V12.9546L7.99984 10.4473L11.9998 12.9546V2.66659Z" fill="white"/>
</g>
<defs>
<clipPath id="clip0_122_2502">
<rect width="16" height="16" fill="white"/>
</clipPath>
</defs>
</svg>
