<svg width="17" height="17" viewBox="0 0 17 17" fill="none" xmlns="http://www.w3.org/2000/svg">
<g clip-path="url(#clip0_661_1506)">
<path d="M11.0591 14.5657V13.2323C11.0591 12.5251 10.7781 11.8468 10.278 11.3467C9.77794 10.8466 9.09966 10.5657 8.39242 10.5657H3.72575C3.0185 10.5657 2.34023 10.8466 1.84013 11.3467C1.34003 11.8468 1.05908 12.5251 1.05908 13.2323V14.5657" stroke="white" stroke-width="2" stroke-linecap="round" stroke-linejoin="round"/>
<path d="M6.05924 7.89901C7.532 7.89901 8.72591 6.7051 8.72591 5.23234C8.72591 3.75958 7.532 2.56567 6.05924 2.56567C4.58649 2.56567 3.39258 3.75958 3.39258 5.23234C3.39258 6.7051 4.58649 7.89901 6.05924 7.89901Z" stroke="white" stroke-width="2" stroke-linecap="round" stroke-linejoin="round"/>
<path d="M12.3926 5.89893L15.7259 9.23226" stroke="white" stroke-width="2" stroke-linecap="round" stroke-linejoin="round"/>
<path d="M15.7259 5.89893L12.3926 9.23226" stroke="white" stroke-width="2" stroke-linecap="round" stroke-linejoin="round"/>
</g>
<defs>
<clipPath id="clip0_661_1506">
<rect width="16" height="16" fill="white" transform="translate(0.392578 0.565674)"/>
</clipPath>
</defs>
</svg>
